Coordinates
version=1
nRows=8
nColumns=40
inDegrees=yes

Units are S.I. units (second, meters, Newtons, ...)
Angles are in degrees.

endheader
time	pelvis_tilt	pelvis_list	pelvis_rotation	pelvis_tx	pelvis_ty	pelvis_tz	hip_flexion_r	hip_adduction_r	hip_rotation_r	knee_angle_r	knee_angle_r_beta	ankle_angle_r	subtalar_angle_r	mtp_angle_r	hip_flexion_l	hip_adduction_l	hip_rotation_l	knee_angle_l	knee_angle_l_beta	ankle_angle_l	subtalar_angle_l	mtp_angle_l	lumbar_extension	lumbar_bending	lumbar_rotation	arm_flex_r	arm_add_r	arm_rot_r	elbow_flex_r	pro_sup_r	wrist_flex_r	wrist_dev_r	arm_flex_l	arm_add_l	arm_rot_l	elbow_flex_l	pro_sup_l	wrist_flex_l	wrist_dev_l
     55.55500000	     -5.07286174	     -3.72707072	     -2.62105230	      0.78319934	      0.92754814	      0.39866973	     28.17292029	     -2.50282965	    -13.47214025	     15.26286089	     15.26286089	      2.43042088	      1.95271084	      4.25416021	      3.62573521	     -2.82074729	    -12.30509188	     14.02806398	     14.02806398	     17.45018072	     -2.80490698	     -3.07547150	     -9.51589490	      4.03337758	      0.35578202	    -15.20057161	    -12.98960402	     -4.12044561	     26.15083910	     46.47043600	      0.00000000	      0.00000000	     18.41659630	    -17.04266617	    -15.93950191	     74.15012968	     47.90161771	      0.00000000	      0.00000000
     55.56821429	     -4.98946417	     -3.71011999	     -2.60846889	      0.78387476	      0.92658209	      0.39964910	     27.68948419	     -2.41624761	    -14.46729547	     14.43349815	     14.43349815	      3.60320901	      3.87469739	      8.01137258	      2.77947915	     -2.78873665	    -12.32561980	     13.57026729	     13.57026729	     17.52886856	     -2.65623498	     -3.85593310	     -9.51128818	      4.08888920	      0.82674675	    -16.02369519	    -12.82603910	     -4.84716034	     26.71249989	     46.47980862	      0.00000000	      0.00000000	     18.83087285	    -16.67048425	    -15.13958620	     72.52731880	     47.82781146	      0.00000000	      0.00000000
     55.58142857	     -4.97408261	     -3.62828906	     -2.60193093	      0.78475480	      0.92547459	      0.40085030	     27.21694936	     -2.27708718	    -14.74418223	     13.79772207	     13.79772207	      3.44825775	      4.33403603	      8.09560648	      2.05406777	     -2.70711799	    -12.30604030	     13.24348441	     13.24348441	     17.86548204	     -2.51393822	     -3.91231774	     -9.40312838	      4.02763204	      0.71408833	    -16.08142858	    -12.71001873	     -4.89983068	     26.65407875	     46.48333536	      0.00000000	      0.00000000	     18.30365767	    -16.55692512	    -15.03598530	     71.99573372	     47.80874919	      0.00000000	      0.00000000
     55.59464286	     -5.01971640	     -3.54595396	     -2.58717437	      0.78572841	      0.92418361	      0.40216959	     26.94402225	     -2.19531167	    -14.83050489	     13.81121491	     13.81121491	      3.38613259	      4.38897032	      8.04635044	      1.53895060	     -2.67218252	    -12.23322347	     13.20720438	     13.20720438	     18.24002573	     -2.52088307	     -4.02887268	     -9.22415526	      3.97463151	      0.73076612	    -16.08658424	    -12.55183111	     -4.88367681	     26.63488765	     46.48213930	      0.00000000	      0.00000000	     17.69029909	    -16.25466619	    -14.92677921	     71.61417348	     47.79027682	      0.00000000	      0.00000000
     55.60785714	     -4.91432060	     -3.47191143	     -2.56189257	      0.78712485	      0.92325376	      0.40348945	     26.34605291	     -2.13975041	    -15.04850608	     13.83437140	     13.83437140	      2.59699761	      4.59923306	      5.71352142	      0.64201634	     -2.58151204	    -12.12304651	     12.79841710	     12.79841710	     18.58675445	     -2.48091002	     -3.71837070	     -9.08345332	      3.98510563	      0.85023167	    -15.76080388	    -12.46835086	     -4.68908360	     25.95327020	     46.49263902	      0.00000000	      0.00000000	     17.73126633	    -15.93297456	    -14.61074685	     69.08368337	     47.72421112	      0.00000000	      0.00000000
     55.62107143	     -4.94150450	     -3.47335204	     -2.49934872	      0.78846331	      0.92218974	      0.40498478	     25.94289877	     -2.01847411	    -15.03587174	     14.20311575	     14.20311575	      2.55875245	      4.47955456	      5.56932275	      0.12601166	     -2.66627637	    -11.99854033	     12.83755653	     12.83755653	     18.97237153	     -2.51535006	     -3.83701572	     -8.91842503	      4.00668953	      0.97257676	    -15.50341835	    -12.28571981	     -4.66572950	     26.05401054	     46.48825728	      0.00000000	      0.00000000	     16.93629483	    -15.50772151	    -14.46172646	     68.67343959	     47.70064733	      0.00000000	      0.00000000
     55.63428571	     -4.86953118	     -3.52940648	     -2.44122369	      0.79008619	      0.92137935	      0.40657187	     25.48278621	     -1.87258459	    -14.94308776	     14.84095401	     14.84095401	      2.59010960	      4.24895585	      5.25705391	     -0.50250535	     -2.81743036	    -11.90476794	     12.90580646	     12.90580646	     19.23854170	     -2.55024046	     -3.87404454	     -8.79856415	      4.16111828	      1.02443263	    -15.08827681	    -12.18010831	     -4.64405616	     26.18902192	     46.48421102	      0.00000000	      0.00000000	     15.99600991	    -15.05297576	    -14.28821242	     67.99628436	     47.66974862	      0.00000000	      0.00000000
     55.64750000	     -4.73236420	     -3.43448604	     -2.34232606	      0.79176442	      0.92059787	      0.40824703	     25.10184245	     -1.82477670	    -14.21337945	     15.64270416	     15.64270416	      1.25089327	      2.63095727	      0.43343854	     -1.16661782	     -2.83340248	    -11.87599685	     13.05584087	     13.05584087	     19.84310438	     -2.32965473	     -2.92541225	     -8.62316487	      4.19148969	      0.93213291	    -14.20429727	    -12.22317357	     -4.04492501	     25.46119127	     46.47295582	      0.00000000	      0.00000000	     16.27351556	    -14.78402864	    -14.12526968	     63.65440928	     47.57735164	      0.00000000	      0.00000000
